<svg width="180" height="180" viewBox="0 0 180 180" xmlns="http://www.w3.org/2000/svg">
<defs>
<linearGradient id="zgrad" x1="0%" y1="0%" x2="100%" y2="100%">
<stop offset="0%" stop-color="#2563eb"/>
<stop offset="100%" stop-color="#0ea5a8"/>
</linearGradient>
</defs>

<rect x="0" y="0" width="180" height="180" rx="28" fill="url(#zgrad)"/>

<path d="M40 50 L140 50 L140 70 L75 130 L140 130 L140 150 L40 150 L40 130 L105 70 L40 70 Z" fill="#ffffff"/>

<circle cx="40" cy="50" r="7" fill="#ffffff"/>
<circle cx="140" cy="150" r="7" fill="#ffffff"/>

<path d="M10 50 L40 50" stroke="#ffffff" stroke-width="3" stroke-linecap="round"/>
<circle cx="10" cy="50" r="4" fill="#ffffff"/>
<path d="M140 150 L170 150" stroke="#ffffff" stroke-width="3" stroke-linecap="round"/>
<circle cx="170" cy="150" r="4" fill="#ffffff"/>

<path d="M170 50 L150 50 L150 60" fill="none" stroke="#ffffff" stroke-width="3" stroke-linecap="round" stroke-linejoin="round"/>
<circle cx="170" cy="50" r="4" fill="#ffffff"/>
<path d="M10 150 L30 150 L30 140" fill="none" stroke="#ffffff" stroke-width="3" stroke-linecap="round" stroke-linejoin="round"/>
<circle cx="10" cy="150" r="4" fill="#ffffff"/>
</svg>
